<?xml version="1.0" encoding="UTF-8" standalone="no"?>
<!DOCTYPE svg PUBLIC "-//W3C//DTD SVG 1.1//EN"
 "http://www.w3.org/Graphics/SVG/1.1/DTD/svg11.dtd">
<!-- Generated by graphviz version 2.43.0 (0)
 -->
<!-- Title: ChronoPlayerArgobotsModelWatermark Pages: 1 -->
<svg width="2514pt" height="596pt"
 viewBox="0.00 0.00 2513.50 596.27" xmlns="http://www.w3.org/2000/svg" xmlns:xlink="http://www.w3.org/1999/xlink">
<g id="graph0" class="graph" transform="scale(1 1) rotate(0) translate(4 592.27)">
<title>ChronoPlayerArgobotsModelWatermark</title>
<polygon fill="white" stroke="transparent" points="-4,4 -4,-592.27 2509.5,-592.27 2509.5,4 -4,4"/>
<text text-anchor="start" x="693.75" y="-567.67" font-family="Helvetica,sans-Serif" font-weight="bold" font-size="22.00">ChronoPlayer (watermark) — Argobots Execution Streams (ES) &amp; User&#45;Level Threads (ULT)</text>
<text text-anchor="start" x="814.25" y="-552.87" font-family="Helvetica,sans-Serif" font-size="13.00">replay hot side pulled on demand from the keeper roster (story_range_fetch), cold side from the archive, split at B = min(hot_floor)</text>
<g id="clust1" class="cluster">
<title>cluster_playback_engine</title>
<path fill="#fffbeb" stroke="#d97706" d="M73.5,-170.27C73.5,-170.27 638.5,-170.27 638.5,-170.27 644.5,-170.27 650.5,-176.27 650.5,-182.27 650.5,-182.27 650.5,-321.27 650.5,-321.27 650.5,-327.27 644.5,-333.27 638.5,-333.27 638.5,-333.27 73.5,-333.27 73.5,-333.27 67.5,-333.27 61.5,-327.27 61.5,-321.27 61.5,-321.27 61.5,-182.27 61.5,-182.27 61.5,-176.27 67.5,-170.27 73.5,-170.27"/>
<text text-anchor="start" x="69.5" y="-319.87" font-family="Helvetica,sans-Serif" font-weight="bold" font-size="13.00">playbackEngine</text>
<text text-anchor="start" x="184.5" y="-319.87" font-family="Helvetica,sans-Serif" font-size="13.00"> &#160;— margo_init(:2225, SERVER, progress=1, rpc=1) &#160;(server + client)</text>
</g>
<g id="clust2" class="cluster">
<title>cluster_record_engine</title>
<path fill="#faf5ff" stroke="#7c3aed" d="M12,-390.27C12,-390.27 700,-390.27 700,-390.27 706,-390.27 712,-396.27 712,-402.27 712,-402.27 712,-521.27 712,-521.27 712,-527.27 706,-533.27 700,-533.27 700,-533.27 12,-533.27 12,-533.27 6,-533.27 0,-527.27 0,-521.27 0,-521.27 0,-402.27 0,-402.27 0,-396.27 6,-390.27 12,-390.27"/>
<text text-anchor="start" x="8" y="-519.87" font-family="Helvetica,sans-Serif" font-weight="bold" font-size="13.00">recordingEngine</text>
<text text-anchor="start" x="129" y="-519.87" font-family="Helvetica,sans-Serif" font-size="13.00"> &#160;— margo_init(:7778, SERVER, progress=1, rpc=1) &#160;(RDMA receiver, LEGACY MIRROR)</text>
</g>
<g id="clust3" class="cluster">
<title>cluster_admin_engine</title>
<path fill="#eff6ff" stroke="#2563eb" d="M1411,-382.27C1411,-382.27 1990,-382.27 1990,-382.27 1996,-382.27 2002,-388.27 2002,-394.27 2002,-394.27 2002,-525.27 2002,-525.27 2002,-531.27 1996,-537.27 1990,-537.27 1990,-537.27 1411,-537.27 1411,-537.27 1405,-537.27 1399,-531.27 1399,-525.27 1399,-525.27 1399,-394.27 1399,-394.27 1399,-388.27 1405,-382.27 1411,-382.27"/>
<text text-anchor="start" x="1407" y="-523.87" font-family="Helvetica,sans-Serif" font-weight="bold" font-size="13.00">dataAdminEngine</text>
<text text-anchor="start" x="1536" y="-523.87" font-family="Helvetica,sans-Serif" font-size="13.00"> &#160;— margo_init(:2222, SERVER, progress=1, rpc=1) &#160;(server + client)</text>
</g>
<g id="clust4" class="cluster">
<title>cluster_app</title>
<path fill="#fff7ed" stroke="#d97706" d="M1487.5,-42.27C1487.5,-42.27 1912.5,-42.27 1912.5,-42.27 1918.5,-42.27 1924.5,-48.27 1924.5,-54.27 1924.5,-54.27 1924.5,-250.27 1924.5,-250.27 1924.5,-256.27 1918.5,-262.27 1912.5,-262.27 1912.5,-262.27 1487.5,-262.27 1487.5,-262.27 1481.5,-262.27 1475.5,-256.27 1475.5,-250.27 1475.5,-250.27 1475.5,-54.27 1475.5,-54.27 1475.5,-48.27 1481.5,-42.27 1487.5,-42.27"/>
<text text-anchor="start" x="1483.5" y="-248.87" font-family="Helvetica,sans-Serif" font-weight="bold" font-size="13.00">Application ES / ULT</text>
<text text-anchor="start" x="1627.5" y="-248.87" font-family="Helvetica,sans-Serif" font-size="13.00"> &#160;— created in main() after </text>
<text text-anchor="start" x="1810.5" y="-248.87" font-family="Courier,monospace" font-size="13.00">tl::abt scope;</text>
</g>
<!-- pb_prog -->
<g id="node1" class="node">
<title>pb_prog</title>
<path fill="#fde68a" stroke="#475569" d="M446,-303.27C446,-303.27 266,-303.27 266,-303.27 260,-303.27 254,-297.27 254,-291.27 254,-291.27 254,-271.27 254,-271.27 254,-265.27 260,-259.27 266,-259.27 266,-259.27 446,-259.27 446,-259.27 452,-259.27 458,-265.27 458,-271.27 458,-271.27 458,-291.27 458,-291.27 458,-297.27 452,-303.27 446,-303.27"/>
<text text-anchor="middle" x="356" y="-290.47" font-family="Helvetica,sans-Serif" font-size="11.00">progress ES</text>
<text text-anchor="middle" x="356" y="-278.47" font-family="Helvetica,sans-Serif" font-size="11.00">(also drives KeeperHotFetchClient</text>
<text text-anchor="middle" x="356" y="-266.47" font-family="Helvetica,sans-Serif" font-size="11.00">+ QueryResponseAgent)</text>
</g>
<!-- pb_h -->
<g id="node2" class="node">
<title>pb_h</title>
<path fill="#fcd34d" stroke="#475569" d="M477.5,-234.27C477.5,-234.27 234.5,-234.27 234.5,-234.27 228.5,-234.27 222.5,-228.27 222.5,-222.27 222.5,-222.27 222.5,-190.27 222.5,-190.27 222.5,-184.27 228.5,-178.27 234.5,-178.27 234.5,-178.27 477.5,-178.27 477.5,-178.27 483.5,-178.27 489.5,-184.27 489.5,-190.27 489.5,-190.27 489.5,-222.27 489.5,-222.27 489.5,-228.27 483.5,-234.27 477.5,-234.27"/>
<text text-anchor="middle" x="356" y="-221.47" font-family="Helvetica,sans-Serif" font-size="11.00">1 RPC&#45;handler ES</text>
<text text-anchor="middle" x="356" y="-209.47" font-family="Helvetica,sans-Serif" font-size="11.00">story_playback_request ULTs</text>
<text text-anchor="middle" x="356" y="-197.47" font-family="Helvetica,sans-Serif" font-size="11.00">fan story_range_fetch over roster,</text>
<text text-anchor="middle" x="356" y="-185.47" font-family="Helvetica,sans-Serif" font-size="11.00">B = min(hot_floor), enqueue archive [start,B)</text>
</g>
<!-- hfc -->
<g id="node10" class="node">
<title>hfc</title>
<path fill="#ede9fe" stroke="#7c3aed" d="M1130.5,-362.77C1130.5,-362.77 936.5,-362.77 936.5,-362.77 930.5,-362.77 924.5,-356.77 924.5,-350.77 924.5,-350.77 924.5,-333.77 924.5,-333.77 924.5,-327.77 930.5,-321.77 936.5,-321.77 936.5,-321.77 1130.5,-321.77 1130.5,-321.77 1136.5,-321.77 1142.5,-327.77 1142.5,-333.77 1142.5,-333.77 1142.5,-350.77 1142.5,-350.77 1142.5,-356.77 1136.5,-362.77 1130.5,-362.77"/>
<text text-anchor="middle" x="1033.5" y="-350.77" font-family="Helvetica,sans-Serif" font-size="10.00">KeeperHotFetchClient x roster</text>
<text text-anchor="middle" x="1033.5" y="-339.77" font-family="Helvetica,sans-Serif" font-size="10.00">(lazy, cached, on playbackEngine)</text>
<text text-anchor="middle" x="1033.5" y="-328.77" font-family="Helvetica,sans-Serif" font-size="10.00">story_range_fetch &#45;&gt; HotRangeResponse</text>
</g>
<!-- pb_h&#45;&gt;hfc -->
<g id="edge7" class="edge">
<title>pb_h&#45;&gt;hfc</title>
<path fill="none" stroke="#d97706" d="M489.92,-193.26C561.36,-192.85 647.72,-203.6 712,-247.27 734.94,-262.86 718.73,-286.44 741.5,-302.27 791.27,-336.87 857.56,-347.97 914.29,-349.92"/>
<polygon fill="#d97706" stroke="#d97706" points="914.32,-353.42 924.4,-350.18 914.5,-346.43 914.32,-353.42"/>
<text text-anchor="middle" x="814" y="-350.27" font-family="Helvetica,sans-Serif" font-size="10.00">fetchRange() per keeper</text>
</g>
<!-- store -->
<g id="node11" class="node">
<title>store</title>
<polygon fill="#f1f5f9" stroke="#334155" points="2499.5,-305.27 2275.5,-305.27 2275.5,-261.27 2505.5,-261.27 2505.5,-299.27 2499.5,-305.27"/>
<polyline fill="none" stroke="#334155" points="2499.5,-305.27 2499.5,-299.27 "/>
<polyline fill="none" stroke="#334155" points="2505.5,-299.27 2499.5,-299.27 "/>
<text text-anchor="middle" x="2390.5" y="-292.47" font-family="Helvetica,sans-Serif" font-size="11.00">PlayerDataStore</text>
<text text-anchor="middle" x="2390.5" y="-280.47" font-family="Helvetica,sans-Serif" font-size="11.00">storyKeepers roster (setStoryKeepers)</text>
<text text-anchor="middle" x="2390.5" y="-268.47" font-family="Helvetica,sans-Serif" font-size="11.00">+ legacy active window</text>
</g>
<!-- pb_h&#45;&gt;store -->
<g id="edge6" class="edge">
<title>pb_h&#45;&gt;store</title>
<path fill="none" stroke="#d97706" stroke-dasharray="5,2" d="M489.52,-216.71C563.61,-222.35 657.66,-229.18 741.5,-234.27 1033.53,-252.01 1106.59,-256.65 1399,-266.27 1710.63,-276.53 2077.62,-280.78 2265.28,-282.39"/>
<polygon fill="#d97706" stroke="#d97706" points="2265.43,-285.89 2275.46,-282.48 2265.49,-278.89 2265.43,-285.89"/>
<text text-anchor="middle" x="1275" y="-267.27" font-family="Helvetica,sans-Serif" font-size="10.00">getStoryKeepers() roster</text>
</g>
<!-- arq -->
<g id="node13" class="node">
<title>arq</title>
<path fill="#e2e8f0" stroke="#334155" d="M1125,-159.27C1125,-161.48 1083.99,-163.27 1033.5,-163.27 983.01,-163.27 942,-161.48 942,-159.27 942,-159.27 942,-123.27 942,-123.27 942,-121.06 983.01,-119.27 1033.5,-119.27 1083.99,-119.27 1125,-121.06 1125,-123.27 1125,-123.27 1125,-159.27 1125,-159.27"/>
<path fill="none" stroke="#334155" d="M1125,-159.27C1125,-157.06 1083.99,-155.27 1033.5,-155.27 983.01,-155.27 942,-157.06 942,-159.27"/>
<text text-anchor="middle" x="1033.5" y="-144.47" font-family="Helvetica,sans-Serif" font-size="11.00">ArchiveReadingRequestQueue</text>
<text text-anchor="middle" x="1033.5" y="-132.47" font-family="Helvetica,sans-Serif" font-size="11.00">(lock&#45;free)</text>
</g>
<!-- pb_h&#45;&gt;arq -->
<g id="edge10" class="edge">
<title>pb_h&#45;&gt;arq</title>
<path fill="none" stroke="#d97706" d="M489.65,-193.51C619.48,-181.01 814.38,-162.26 931.92,-150.95"/>
<polygon fill="#d97706" stroke="#d97706" points="932.38,-154.42 942,-149.98 931.71,-147.45 932.38,-154.42"/>
<text text-anchor="middle" x="814" y="-181.27" font-family="Helvetica,sans-Serif" font-size="10.00">push ArchiveReadingRequest</text>
<text text-anchor="middle" x="814" y="-170.27" font-family="Helvetica,sans-Serif" font-size="10.00">[start, B) &#160;when B &gt; start</text>
</g>
<!-- aq -->
<g id="node14" class="node">
<title>aq</title>
<polygon fill="#f1f5f9" stroke="#334155" points="1133.5,-224.27 927.5,-224.27 927.5,-188.27 1139.5,-188.27 1139.5,-218.27 1133.5,-224.27"/>
<polyline fill="none" stroke="#334155" points="1133.5,-224.27 1133.5,-218.27 "/>
<polyline fill="none" stroke="#334155" points="1139.5,-218.27 1133.5,-218.27 "/>
<text text-anchor="middle" x="1033.5" y="-209.47" font-family="Helvetica,sans-Serif" font-size="11.00">QueryResponseAgent</text>
<text text-anchor="middle" x="1033.5" y="-197.47" font-family="Helvetica,sans-Serif" font-size="11.00">active_queries (stashed responses)</text>
</g>
<!-- pb_h&#45;&gt;aq -->
<g id="edge9" class="edge">
<title>pb_h&#45;&gt;aq</title>
<path fill="none" stroke="#d97706" d="M489.65,-206.27C614.16,-206.27 798.52,-206.27 917.09,-206.27"/>
<polygon fill="#d97706" stroke="#d97706" points="917.29,-209.77 927.29,-206.27 917.29,-202.77 917.29,-209.77"/>
<text text-anchor="middle" x="814" y="-220.27" font-family="Helvetica,sans-Serif" font-size="10.00">stashQueryResponseRecord()</text>
<text text-anchor="middle" x="814" y="-209.27" font-family="Helvetica,sans-Serif" font-size="10.00">(hot events &gt;= B)</text>
</g>
<!-- rec_prog -->
<g id="node3" class="node">
<title>rec_prog</title>
<path fill="#ddd6fe" stroke="#475569" d="M385,-503.27C385,-503.27 327,-503.27 327,-503.27 321,-503.27 315,-497.27 315,-491.27 315,-491.27 315,-479.27 315,-479.27 315,-473.27 321,-467.27 327,-467.27 327,-467.27 385,-467.27 385,-467.27 391,-467.27 397,-473.27 397,-479.27 397,-479.27 397,-491.27 397,-491.27 397,-497.27 391,-503.27 385,-503.27"/>
<text text-anchor="middle" x="356" y="-482.47" font-family="Helvetica,sans-Serif" font-size="11.00">progress ES</text>
</g>
<!-- rec_h -->
<g id="node4" class="node">
<title>rec_h</title>
<path fill="#c4b5fd" stroke="#475569" d="M454,-442.27C454,-442.27 258,-442.27 258,-442.27 252,-442.27 246,-436.27 246,-430.27 246,-430.27 246,-410.27 246,-410.27 246,-404.27 252,-398.27 258,-398.27 258,-398.27 454,-398.27 454,-398.27 460,-398.27 466,-404.27 466,-410.27 466,-410.27 466,-430.27 466,-430.27 466,-436.27 460,-442.27 454,-442.27"/>
<text text-anchor="middle" x="356" y="-429.47" font-family="Helvetica,sans-Serif" font-size="11.00">1 RPC&#45;handler ES</text>
<text text-anchor="middle" x="356" y="-417.47" font-family="Helvetica,sans-Serif" font-size="11.00">receive_story_chunk ULTs</text>
<text text-anchor="middle" x="356" y="-405.47" font-family="Helvetica,sans-Serif" font-size="11.00">(legacy mirror — not read by replay)</text>
</g>
<!-- siq -->
<g id="node12" class="node">
<title>siq</title>
<path fill="#e2e8f0" stroke="#334155" d="M1116.5,-428.27C1116.5,-430.48 1079.3,-432.27 1033.5,-432.27 987.7,-432.27 950.5,-430.48 950.5,-428.27 950.5,-428.27 950.5,-392.27 950.5,-392.27 950.5,-390.06 987.7,-388.27 1033.5,-388.27 1079.3,-388.27 1116.5,-390.06 1116.5,-392.27 1116.5,-392.27 1116.5,-428.27 1116.5,-428.27"/>
<path fill="none" stroke="#334155" d="M1116.5,-428.27C1116.5,-426.06 1079.3,-424.27 1033.5,-424.27 987.7,-424.27 950.5,-426.06 950.5,-428.27"/>
<text text-anchor="middle" x="1033.5" y="-413.47" font-family="Helvetica,sans-Serif" font-size="11.00">StoryChunkIngestionQueue</text>
<text text-anchor="middle" x="1033.5" y="-401.47" font-family="Helvetica,sans-Serif" font-size="11.00">(lock&#45;free, legacy)</text>
</g>
<!-- rec_h&#45;&gt;siq -->
<g id="edge2" class="edge">
<title>rec_h&#45;&gt;siq</title>
<path fill="none" stroke="#94a3b8" d="M466.28,-418.65C597.94,-416.7 816.79,-413.46 940.3,-411.64"/>
<polygon fill="#94a3b8" stroke="#94a3b8" points="940.54,-415.13 950.49,-411.48 940.44,-408.13 940.54,-415.13"/>
<text text-anchor="middle" x="814" y="-417.27" font-family="Helvetica,sans-Serif" font-size="10.00">ingestStoryChunk()</text>
</g>
<!-- adm_prog -->
<g id="node5" class="node">
<title>adm_prog</title>
<path fill="#bfdbfe" stroke="#475569" d="M1788.5,-507.27C1788.5,-507.27 1611.5,-507.27 1611.5,-507.27 1605.5,-507.27 1599.5,-501.27 1599.5,-495.27 1599.5,-495.27 1599.5,-483.27 1599.5,-483.27 1599.5,-477.27 1605.5,-471.27 1611.5,-471.27 1611.5,-471.27 1788.5,-471.27 1788.5,-471.27 1794.5,-471.27 1800.5,-477.27 1800.5,-483.27 1800.5,-483.27 1800.5,-495.27 1800.5,-495.27 1800.5,-501.27 1794.5,-507.27 1788.5,-507.27"/>
<text text-anchor="middle" x="1700" y="-492.47" font-family="Helvetica,sans-Serif" font-size="11.00">progress ES</text>
<text text-anchor="middle" x="1700" y="-480.47" font-family="Helvetica,sans-Serif" font-size="11.00">(also drives PlayerRegistryClient)</text>
</g>
<!-- visor -->
<g id="node18" class="node">
<title>visor</title>
<polygon fill="#dbeafe" stroke="#2563eb" points="2478.5,-471.27 2302.5,-471.27 2302.5,-467.27 2298.5,-467.27 2298.5,-463.27 2302.5,-463.27 2302.5,-443.27 2298.5,-443.27 2298.5,-439.27 2302.5,-439.27 2302.5,-435.27 2478.5,-435.27 2478.5,-471.27"/>
<polyline fill="none" stroke="#2563eb" points="2302.5,-467.27 2306.5,-467.27 2306.5,-463.27 2302.5,-463.27 "/>
<polyline fill="none" stroke="#2563eb" points="2302.5,-443.27 2306.5,-443.27 2306.5,-439.27 2302.5,-439.27 "/>
<text text-anchor="middle" x="2390.5" y="-456.47" font-family="Helvetica,sans-Serif" font-size="11.00">ChronoVisor</text>
<text text-anchor="middle" x="2390.5" y="-444.47" font-family="Helvetica,sans-Serif" font-size="11.00">KeeperRegistryService :8888</text>
</g>
<!-- adm_prog&#45;&gt;visor -->
<g id="edge18" class="edge">
<title>adm_prog&#45;&gt;visor</title>
<path fill="none" stroke="#2563eb" d="M1800.75,-484.06C1932.1,-477.19 2161.61,-465.19 2291.89,-458.37"/>
<polygon fill="#2563eb" stroke="#2563eb" points="2292.44,-461.85 2302.25,-457.83 2292.08,-454.86 2292.44,-461.85"/>
<text text-anchor="middle" x="2134.5" y="-485.27" font-family="Helvetica,sans-Serif" font-size="10.00">register_player / stats</text>
<text text-anchor="middle" x="2134.5" y="-474.27" font-family="Helvetica,sans-Serif" font-size="10.00">(PlayerRegistryClient on same engine)</text>
</g>
<!-- adm_h -->
<g id="node6" class="node">
<title>adm_h</title>
<path fill="#93c5fd" stroke="#475569" d="M1800,-446.27C1800,-446.27 1600,-446.27 1600,-446.27 1594,-446.27 1588,-440.27 1588,-434.27 1588,-434.27 1588,-402.27 1588,-402.27 1588,-396.27 1594,-390.27 1600,-390.27 1600,-390.27 1800,-390.27 1800,-390.27 1806,-390.27 1812,-396.27 1812,-402.27 1812,-402.27 1812,-434.27 1812,-434.27 1812,-440.27 1806,-446.27 1800,-446.27"/>
<text text-anchor="middle" x="1700" y="-433.47" font-family="Helvetica,sans-Serif" font-size="11.00">1 RPC&#45;handler ES</text>
<text text-anchor="middle" x="1700" y="-421.47" font-family="Helvetica,sans-Serif" font-size="11.00">start/stop_story_recording</text>
<text text-anchor="middle" x="1700" y="-409.47" font-family="Helvetica,sans-Serif" font-size="11.00">+ start_story_recording_with_keepers</text>
<text text-anchor="middle" x="1700" y="-397.47" font-family="Helvetica,sans-Serif" font-size="11.00">(setStoryKeepers roster)</text>
</g>
<!-- adm_h&#45;&gt;store -->
<g id="edge17" class="edge">
<title>adm_h&#45;&gt;store</title>
<path fill="none" stroke="#2563eb" stroke-dasharray="1,5" d="M1812.25,-406.4C1869.23,-399.59 1939.58,-390.03 2002,-378.27 2105.3,-358.8 2222.3,-329.03 2300.46,-308.01"/>
<polygon fill="#2563eb" stroke="#2563eb" points="2301.53,-311.35 2310.27,-305.37 2299.7,-304.59 2301.53,-311.35"/>
<text text-anchor="middle" x="2134.5" y="-374.27" font-family="Helvetica,sans-Serif" font-size="10.00">setStoryKeepers() + startStoryRecording()</text>
</g>
<!-- dc -->
<g id="node7" class="node">
<title>dc</title>
<path fill="#fde68a" stroke="#475569" d="M1838,-232.27C1838,-232.27 1562,-232.27 1562,-232.27 1556,-232.27 1550,-226.27 1550,-220.27 1550,-220.27 1550,-200.27 1550,-200.27 1550,-194.27 1556,-188.27 1562,-188.27 1562,-188.27 1838,-188.27 1838,-188.27 1844,-188.27 1850,-194.27 1850,-200.27 1850,-200.27 1850,-220.27 1850,-220.27 1850,-226.27 1844,-232.27 1838,-232.27"/>
<text text-anchor="middle" x="1700" y="-219.47" font-family="Helvetica,sans-Serif" font-size="11.00">startDataCollection(3) &#160;[LEGACY MIRROR]</text>
<text text-anchor="middle" x="1700" y="-207.47" font-family="Helvetica,sans-Serif" font-size="11.00">3 app ES + 6 ULT &#45;&gt; dataCollectionTask()</text>
<text text-anchor="middle" x="1700" y="-195.47" font-family="Helvetica,sans-Serif" font-size="11.00">ingested chunks &#45;&gt; active store (unused by replay)</text>
</g>
<!-- dc&#45;&gt;store -->
<g id="edge4" class="edge">
<title>dc&#45;&gt;store</title>
<path fill="none" stroke="#94a3b8" d="M1850.09,-217.61C1958.02,-224.05 2107.22,-235.25 2237.5,-253.27 2250.13,-255.02 2263.3,-257.15 2276.37,-259.46"/>
<polygon fill="#94a3b8" stroke="#94a3b8" points="2275.88,-262.92 2286.34,-261.25 2277.12,-256.03 2275.88,-262.92"/>
<text text-anchor="middle" x="2134.5" y="-256.27" font-family="Helvetica,sans-Serif" font-size="10.00">merge into active window (unused)</text>
</g>
<!-- ar -->
<g id="node8" class="node">
<title>ar</title>
<path fill="#fcd34d" stroke="#475569" d="M1862.5,-94.27C1862.5,-94.27 1537.5,-94.27 1537.5,-94.27 1531.5,-94.27 1525.5,-88.27 1525.5,-82.27 1525.5,-82.27 1525.5,-62.27 1525.5,-62.27 1525.5,-56.27 1531.5,-50.27 1537.5,-50.27 1537.5,-50.27 1862.5,-50.27 1862.5,-50.27 1868.5,-50.27 1874.5,-56.27 1874.5,-62.27 1874.5,-62.27 1874.5,-82.27 1874.5,-82.27 1874.5,-88.27 1868.5,-94.27 1862.5,-94.27"/>
<text text-anchor="middle" x="1700" y="-81.47" font-family="Helvetica,sans-Serif" font-size="11.00">archiveReadingAgent.startArchiveReading(1)</text>
<text text-anchor="middle" x="1700" y="-69.47" font-family="Helvetica,sans-Serif" font-size="11.00">1 app ES + 2 ULT &#45;&gt; archiveReadingTask()</text>
<text text-anchor="middle" x="1700" y="-57.47" font-family="Helvetica,sans-Serif" font-size="11.00">read HDF5 [start,B) &#45;&gt; addArchivedEventsToQueryResponse</text>
</g>
<!-- ar&#45;&gt;aq -->
<g id="edge13" class="edge">
<title>ar&#45;&gt;aq</title>
<path fill="none" stroke="#d97706" d="M1525.19,-76.38C1482.76,-81.73 1438.3,-91.15 1399,-107.27 1383.62,-113.58 1384.78,-123.73 1369.5,-130.27 1291.44,-163.7 1261.76,-133.6 1180.5,-158.27 1162.62,-163.7 1160.01,-169.75 1142.5,-176.27 1134,-179.44 1125.01,-182.45 1115.99,-185.25"/>
<polygon fill="#d97706" stroke="#d97706" points="1114.78,-181.96 1106.22,-188.21 1116.8,-188.66 1114.78,-181.96"/>
<text text-anchor="middle" x="1275" y="-161.27" font-family="Helvetica,sans-Serif" font-size="10.00">addArchivedEventsToQueryResponse()</text>
</g>
<!-- qr -->
<g id="node9" class="node">
<title>qr</title>
<path fill="#fdba74" stroke="#475569" d="M1827.5,-163.27C1827.5,-163.27 1572.5,-163.27 1572.5,-163.27 1566.5,-163.27 1560.5,-157.27 1560.5,-151.27 1560.5,-151.27 1560.5,-131.27 1560.5,-131.27 1560.5,-125.27 1566.5,-119.27 1572.5,-119.27 1572.5,-119.27 1827.5,-119.27 1827.5,-119.27 1833.5,-119.27 1839.5,-125.27 1839.5,-131.27 1839.5,-131.27 1839.5,-151.27 1839.5,-151.27 1839.5,-157.27 1833.5,-163.27 1827.5,-163.27"/>
<text text-anchor="middle" x="1700" y="-150.47" font-family="Helvetica,sans-Serif" font-size="11.00">QueryResponseAgent.startResponseThreads(1)</text>
<text text-anchor="middle" x="1700" y="-138.47" font-family="Helvetica,sans-Serif" font-size="11.00">per requesting client: 1 app ES + 1 ULT</text>
<text text-anchor="middle" x="1700" y="-126.47" font-family="Helvetica,sans-Serif" font-size="11.00">drain stashed responses &#45;&gt; RDMA reply</text>
</g>
<!-- client -->
<g id="node17" class="node">
<title>client</title>
<polygon fill="#dcfce7" stroke="#16a34a" points="2469,-73.27 2312,-73.27 2312,-69.27 2308,-69.27 2308,-65.27 2312,-65.27 2312,-45.27 2308,-45.27 2308,-41.27 2312,-41.27 2312,-37.27 2469,-37.27 2469,-73.27"/>
<polyline fill="none" stroke="#16a34a" points="2312,-69.27 2316,-69.27 2316,-65.27 2312,-65.27 "/>
<polyline fill="none" stroke="#16a34a" points="2312,-45.27 2316,-45.27 2316,-41.27 2312,-41.27 "/>
<text text-anchor="middle" x="2390.5" y="-58.47" font-family="Helvetica,sans-Serif" font-size="11.00">ChronoLog Client</text>
<text text-anchor="middle" x="2390.5" y="-46.47" font-family="Helvetica,sans-Serif" font-size="11.00">ClientQueryService :5557</text>
</g>
<!-- qr&#45;&gt;client -->
<g id="edge15" class="edge">
<title>qr&#45;&gt;client</title>
<path fill="none" stroke="#7c3aed" stroke-width="2.2" stroke-dasharray="5,2" d="M1839.68,-126.22C1890.74,-120.52 1949.02,-113.82 2002,-107.27 2104.99,-94.54 2223.17,-78.47 2301.67,-67.59"/>
<polygon fill="#7c3aed" stroke="#7c3aed" stroke-width="2.2" points="2302.57,-71 2312,-66.16 2301.61,-64.06 2302.57,-71"/>
<text text-anchor="middle" x="2134.5" y="-106.27" font-family="Helvetica,sans-Serif" font-size="10.00">receive_query_response (RDMA)</text>
</g>
<!-- keeper -->
<g id="node16" class="node">
<title>keeper</title>
<polygon fill="#ede9fe" stroke="#7c3aed" points="1848,-365.27 1552,-365.27 1552,-361.27 1548,-361.27 1548,-357.27 1552,-357.27 1552,-329.27 1548,-329.27 1548,-325.27 1552,-325.27 1552,-321.27 1848,-321.27 1848,-365.27"/>
<polyline fill="none" stroke="#7c3aed" points="1552,-361.27 1556,-361.27 1556,-357.27 1552,-357.27 "/>
<polyline fill="none" stroke="#7c3aed" points="1552,-329.27 1556,-329.27 1556,-325.27 1552,-325.27 "/>
<text text-anchor="middle" x="1700" y="-352.47" font-family="Helvetica,sans-Serif" font-size="11.00">ChronoKeeper(s)</text>
<text text-anchor="middle" x="1700" y="-340.47" font-family="Helvetica,sans-Serif" font-size="11.00">KeeperRecordingService :6666 (story_range_fetch)</text>
<text text-anchor="middle" x="1700" y="-328.47" font-family="Helvetica,sans-Serif" font-size="11.00">extractionEngine (legacy chunk push)</text>
</g>
<!-- hfc&#45;&gt;keeper -->
<g id="edge8" class="edge">
<title>hfc&#45;&gt;keeper</title>
<path fill="none" stroke="#7c3aed" stroke-width="2.2" d="M1142.74,-342.43C1250.95,-342.6 1418.49,-342.85 1541.43,-343.03"/>
<polygon fill="#7c3aed" stroke="#7c3aed" stroke-width="2.2" points="1541.69,-346.53 1551.7,-343.05 1541.7,-339.53 1541.69,-346.53"/>
<text text-anchor="middle" x="1275" y="-345.27" font-family="Helvetica,sans-Serif" font-size="10.00">story_range_fetch (RDMA/RPC)</text>
</g>
<!-- siq&#45;&gt;dc -->
<g id="edge3" class="edge">
<title>siq&#45;&gt;dc</title>
<path fill="none" stroke="#94a3b8" d="M1116.63,-416.61C1189.15,-418.1 1294.69,-409.84 1369.5,-359.27 1390.88,-344.82 1378.91,-325.46 1399,-309.27 1444.13,-272.91 1503.12,-249.69 1556.84,-234.97"/>
<polygon fill="#94a3b8" stroke="#94a3b8" points="1558.04,-238.28 1566.8,-232.32 1556.24,-231.51 1558.04,-238.28"/>
<text text-anchor="middle" x="1275" y="-417.27" font-family="Helvetica,sans-Serif" font-size="10.00">collect</text>
</g>
<!-- arq&#45;&gt;ar -->
<g id="edge11" class="edge">
<title>arq&#45;&gt;ar</title>
<path fill="none" stroke="#d97706" d="M1125.08,-125.28C1143.39,-122.36 1162.53,-119.52 1180.5,-117.27 1291.23,-103.39 1415.8,-92.42 1515.09,-84.8"/>
<polygon fill="#d97706" stroke="#d97706" points="1515.52,-88.27 1525.23,-84.02 1514.99,-81.29 1515.52,-88.27"/>
<text text-anchor="middle" x="1275" y="-120.27" font-family="Helvetica,sans-Serif" font-size="10.00">popReadingRequest()</text>
</g>
<!-- aq&#45;&gt;qr -->
<g id="edge14" class="edge">
<title>aq&#45;&gt;qr</title>
<path fill="none" stroke="#d97706" d="M1139.79,-195.97C1250.52,-185.14 1425.65,-168.01 1550.41,-155.8"/>
<polygon fill="#d97706" stroke="#d97706" points="1550.82,-159.28 1560.44,-154.82 1550.14,-152.31 1550.82,-159.28"/>
<text text-anchor="middle" x="1275" y="-193.27" font-family="Helvetica,sans-Serif" font-size="10.00">drain completed responses</text>
</g>
<!-- hdf5 -->
<g id="node15" class="node">
<title>hdf5</title>
<path fill="#dcfce7" stroke="#15803d" d="M1099,-90.27C1099,-92.48 1069.64,-94.27 1033.5,-94.27 997.36,-94.27 968,-92.48 968,-90.27 968,-90.27 968,-54.27 968,-54.27 968,-52.06 997.36,-50.27 1033.5,-50.27 1069.64,-50.27 1099,-52.06 1099,-54.27 1099,-54.27 1099,-90.27 1099,-90.27"/>
<path fill="none" stroke="#15803d" d="M1099,-90.27C1099,-88.06 1069.64,-86.27 1033.5,-86.27 997.36,-86.27 968,-88.06 968,-90.27"/>
<text text-anchor="middle" x="1033.5" y="-75.47" font-family="Helvetica,sans-Serif" font-size="11.00">HDF5 archive</text>
<text text-anchor="middle" x="1033.5" y="-63.47" font-family="Helvetica,sans-Serif" font-size="11.00">(story_files_dir /tmp)</text>
</g>
<!-- hdf5&#45;&gt;ar -->
<g id="edge12" class="edge">
<title>hdf5&#45;&gt;ar</title>
<path fill="none" stroke="#16a34a" d="M1099.12,-72.27C1194.42,-72.27 1376.31,-72.27 1514.93,-72.27"/>
<polygon fill="#16a34a" stroke="#16a34a" points="1515.25,-75.77 1525.25,-72.27 1515.25,-68.77 1515.25,-75.77"/>
<text text-anchor="middle" x="1275" y="-75.27" font-family="Helvetica,sans-Serif" font-size="10.00">readArchivedStory([start,B))</text>
</g>
<!-- keeper&#45;&gt;rec_h -->
<g id="edge1" class="edge">
<title>keeper&#45;&gt;rec_h</title>
<path fill="none" stroke="#7c3aed" stroke-width="1.6" stroke-dasharray="5,2" d="M1551.63,-332.27C1499.63,-335.1 1443.18,-346.43 1399,-376.27 1376.01,-391.8 1392.85,-416.3 1369.5,-431.27 1202.91,-538.06 1122.33,-449.63 924.5,-445.27 769.57,-441.86 591.03,-433.22 476.23,-427.05"/>
<polygon fill="#7c3aed" stroke="#7c3aed" stroke-width="1.6" points="476.19,-423.54 466.01,-426.5 475.81,-430.53 476.19,-423.54"/>
<text text-anchor="middle" x="1033.5" y="-479.27" font-family="Helvetica,sans-Serif" font-size="10.00">receive_story_chunk (RDMA, legacy)</text>
</g>
<!-- client&#45;&gt;pb_h -->
<g id="edge5" class="edge">
<title>client&#45;&gt;pb_h</title>
<path fill="none" stroke="#d97706" d="M2311.89,-45.85C2092.53,-21.06 1449.82,38.98 924.5,-38.27 746.14,-64.5 545.69,-133.69 437.21,-174.63"/>
<polygon fill="#d97706" stroke="#d97706" points="435.76,-171.44 427.65,-178.26 438.24,-177.99 435.76,-171.44"/>
<text text-anchor="middle" x="1275" y="-14.27" font-family="Helvetica,sans-Serif" font-size="10.00">story_playback_request</text>
</g>
<!-- visor&#45;&gt;adm_h -->
<g id="edge16" class="edge">
<title>visor&#45;&gt;adm_h</title>
<path fill="none" stroke="#2563eb" stroke-dasharray="1,5" d="M2302.49,-438.85C2281.29,-435.84 2258.62,-433.05 2237.5,-431.27 2095.25,-419.3 1931.1,-417 1822.21,-417.08"/>
<polygon fill="#2563eb" stroke="#2563eb" points="1822.18,-413.58 1812.18,-417.1 1822.19,-420.58 1822.18,-413.58"/>
<text text-anchor="middle" x="2134.5" y="-445.27" font-family="Helvetica,sans-Serif" font-size="10.00">start_story_recording_with_keepers</text>
<text text-anchor="middle" x="2134.5" y="-434.27" font-family="Helvetica,sans-Serif" font-size="10.00">(roster) / stop</text>
</g>
</g>
</svg>
